<svg id="OBJECTS" xmlns="http://www.w3.org/2000/svg" xmlns:xlink="http://www.w3.org/1999/xlink"
    viewBox="0 0 623.63 373.47">
    <defs>
        <style>
            .cls-1,
            .cls-12,
            .cls-18,
            .cls-2,
            .cls-22,
            .cls-26,
            .cls-27,
            .cls-28,
            .cls-30,
            .cls-9 {
                fill: none;
            }

            .cls-2 {
                stroke: #c4e8e3;
            }

            .cls-12,
            .cls-18,
            .cls-2,
            .cls-22,
            .cls-26,
            .cls-27,
            .cls-28,
            .cls-29,
            .cls-30,
            .cls-9 {
                stroke-miterlimit: 10;
            }

            .cls-3 {
                fill: #b2e7fe;
            }

            .cls-4 {
                fill: #fff;
            }

            .cls-5 {
                fill: #37bdb4;
            }

            .cls-6 {
                fill: #268594;
            }

            .cls-7 {
                fill: #ffb75b;
            }

            .cls-8 {
                fill: #f99d41;
            }

            .cls-9 {
                stroke: #d7f5ff;
            }

            .cls-10 {
                fill: #d7f5ff;
            }

            .cls-11,
            .cls-23 {
                fill: #1e8ceb;
            }

            .cls-12,
            .cls-22,
            .cls-26 {
                stroke: #fff;
            }

            .cls-12 {
                stroke-width: 0.75px;
            }

            .cls-13 {
                fill: #1362c9;
            }

            .cls-14 {
                fill: #233770;
            }

            .cls-15 {
                fill: #162956;
            }

            .cls-16 {
                fill: #4eb0f9;
            }

            .cls-17 {
                fill: #80cfff;
            }

            .cls-18 {
                stroke: #1e8ceb;
            }

            .cls-19 {
                fill: #2c4784;
            }

            .cls-20 {
                fill: #ffa9a8;
            }

            .cls-21 {
                fill: #f48989;
            }

            .cls-22 {
                stroke-width: 0.5px;
            }

            .cls-23 {
                fill-rule: evenodd;
            }

            .cls-24 {
                fill: #04457c;
            }

            .cls-25 {
                fill: #203771;
            }

            .cls-26,
            .cls-28 {
                stroke-linecap: round;
            }

            .cls-26 {
                stroke-width: 1.5px;
            }

            .cls-27,
            .cls-28 {
                stroke: #4d669e;
            }

            .cls-29 {
                stroke: #04457c;
                fill: url(#Unnamed_Pattern);
            }

            .cls-30 {
                stroke: #233770;
            }
        </style>
        <pattern id="Unnamed_Pattern" data-name="Unnamed Pattern" width="1328.34" height="509.14"
            patternTransform="matrix(-0.88, 0.48, 0.48, 0.88, 884.51, -149.65)" patternUnits="userSpaceOnUse"
            viewBox="0 0 1328.34 509.14">
            <rect class="cls-1" width="1328.34" height="509.14" />
            <line class="cls-2" x1="508.78" y1="0.35" x2="0.35" y2="508.78" />
            <line class="cls-2" x1="515.39" y1="0.35" x2="6.96" y2="508.78" />
            <line class="cls-2" x1="522" y1="0.35" x2="13.57" y2="508.78" />
            <line class="cls-2" x1="528.6" y1="0.35" x2="20.17" y2="508.78" />
            <line class="cls-2" x1="535.21" y1="0.35" x2="26.78" y2="508.78" />
            <line class="cls-2" x1="541.82" y1="0.35" x2="33.39" y2="508.78" />
            <line class="cls-2" x1="548.42" y1="0.35" x2="39.99" y2="508.78" />
            <line class="cls-2" x1="555.03" y1="0.35" x2="46.6" y2="508.78" />
            <line class="cls-2" x1="561.63" y1="0.35" x2="53.21" y2="508.78" />
            <line class="cls-2" x1="568.24" y1="0.35" x2="59.81" y2="508.78" />
            <line class="cls-2" x1="574.85" y1="0.35" x2="66.42" y2="508.78" />
            <line class="cls-2" x1="581.45" y1="0.35" x2="73.02" y2="508.78" />
            <line class="cls-2" x1="588.06" y1="0.35" x2="79.63" y2="508.78" />
            <line class="cls-2" x1="594.67" y1="0.35" x2="86.24" y2="508.78" />
            <line class="cls-2" x1="601.27" y1="0.35" x2="92.84" y2="508.78" />
            <line class="cls-2" x1="607.88" y1="0.35" x2="99.45" y2="508.78" />
            <line class="cls-2" x1="614.49" y1="0.35" x2="106.06" y2="508.78" />
            <line class="cls-2" x1="621.09" y1="0.35" x2="112.66" y2="508.78" />
            <line class="cls-2" x1="627.7" y1="0.35" x2="119.27" y2="508.78" />
            <line class="cls-2" x1="634.31" y1="0.35" x2="125.88" y2="508.78" />
            <line class="cls-2" x1="640.91" y1="0.35" x2="132.48" y2="508.78" />
            <line class="cls-2" x1="647.52" y1="0.35" x2="139.09" y2="508.78" />
            <line class="cls-2" x1="654.13" y1="0.35" x2="145.7" y2="508.78" />
            <line class="cls-2" x1="660.73" y1="0.35" x2="152.3" y2="508.78" />
            <line class="cls-2" x1="667.34" y1="0.35" x2="158.91" y2="508.78" />
            <line class="cls-2" x1="673.95" y1="0.35" x2="165.52" y2="508.78" />
            <line class="cls-2" x1="680.55" y1="0.35" x2="172.12" y2="508.78" />
            <line class="cls-2" x1="687.16" y1="0.35" x2="178.73" y2="508.78" />
            <line class="cls-2" x1="693.76" y1="0.35" x2="185.33" y2="508.78" />
            <line class="cls-2" x1="700.37" y1="0.35" x2="191.94" y2="508.78" />
            <line class="cls-2" x1="706.98" y1="0.35" x2="198.55" y2="508.78" />
            <line class="cls-2" x1="713.58" y1="0.35" x2="205.15" y2="508.78" />
            <line class="cls-2" x1="720.19" y1="0.35" x2="211.76" y2="508.78" />
            <line class="cls-2" x1="726.8" y1="0.35" x2="218.37" y2="508.78" />
            <line class="cls-2" x1="733.4" y1="0.35" x2="224.97" y2="508.78" />
            <line class="cls-2" x1="740.01" y1="0.35" x2="231.58" y2="508.78" />
            <line class="cls-2" x1="746.62" y1="0.35" x2="238.19" y2="508.78" />
            <line class="cls-2" x1="753.22" y1="0.35" x2="244.79" y2="508.78" />
            <line class="cls-2" x1="759.83" y1="0.35" x2="251.4" y2="508.78" />
            <line class="cls-2" x1="766.44" y1="0.35" x2="258.01" y2="508.78" />
            <line class="cls-2" x1="773.04" y1="0.35" x2="264.61" y2="508.78" />
            <line class="cls-2" x1="779.65" y1="0.35" x2="271.22" y2="508.78" />
            <line class="cls-2" x1="786.26" y1="0.35" x2="277.83" y2="508.78" />
            <line class="cls-2" x1="792.86" y1="0.35" x2="284.43" y2="508.78" />
            <line class="cls-2" x1="799.47" y1="0.35" x2="291.04" y2="508.78" />
            <line class="cls-2" x1="806.07" y1="0.35" x2="297.64" y2="508.78" />
            <line class="cls-2" x1="812.68" y1="0.35" x2="304.25" y2="508.78" />
            <line class="cls-2" x1="819.29" y1="0.35" x2="310.86" y2="508.78" />
            <line class="cls-2" x1="825.89" y1="0.35" x2="317.46" y2="508.78" />
            <line class="cls-2" x1="832.5" y1="0.35" x2="324.07" y2="508.78" />
            <line class="cls-2" x1="839.11" y1="0.35" x2="330.68" y2="508.78" />
            <line class="cls-2" x1="845.71" y1="0.35" x2="337.28" y2="508.78" />
            <line class="cls-2" x1="852.32" y1="0.35" x2="343.89" y2="508.78" />
            <line class="cls-2" x1="858.93" y1="0.35" x2="350.5" y2="508.78" />
            <line class="cls-2" x1="865.53" y1="0.35" x2="357.1" y2="508.78" />
            <line class="cls-2" x1="872.14" y1="0.35" x2="363.71" y2="508.78" />
            <line class="cls-2" x1="878.75" y1="0.35" x2="370.32" y2="508.78" />
            <line class="cls-2" x1="885.35" y1="0.35" x2="376.92" y2="508.78" />
            <line class="cls-2" x1="891.96" y1="0.35" x2="383.53" y2="508.78" />
            <line class="cls-2" x1="898.57" y1="0.35" x2="390.14" y2="508.78" />
            <line class="cls-2" x1="905.17" y1="0.35" x2="396.74" y2="508.78" />
            <line class="cls-2" x1="911.78" y1="0.35" x2="403.35" y2="508.78" />
            <line class="cls-2" x1="918.38" y1="0.35" x2="409.96" y2="508.78" />
            <line class="cls-2" x1="924.99" y1="0.35" x2="416.56" y2="508.78" />
            <line class="cls-2" x1="931.6" y1="0.35" x2="423.17" y2="508.78" />
            <line class="cls-2" x1="938.2" y1="0.35" x2="429.77" y2="508.78" />
            <line class="cls-2" x1="944.81" y1="0.35" x2="436.38" y2="508.78" />
            <line class="cls-2" x1="951.42" y1="0.35" x2="442.99" y2="508.78" />
            <line class="cls-2" x1="958.02" y1="0.35" x2="449.59" y2="508.78" />
            <line class="cls-2" x1="964.63" y1="0.35" x2="456.2" y2="508.78" />
            <line class="cls-2" x1="971.24" y1="0.35" x2="462.81" y2="508.78" />
            <line class="cls-2" x1="977.84" y1="0.35" x2="469.41" y2="508.78" />
            <line class="cls-2" x1="984.45" y1="0.35" x2="476.02" y2="508.78" />
            <line class="cls-2" x1="991.06" y1="0.35" x2="482.63" y2="508.78" />
            <line class="cls-2" x1="997.66" y1="0.35" x2="489.23" y2="508.78" />
            <line class="cls-2" x1="1004.27" y1="0.35" x2="495.84" y2="508.78" />
            <line class="cls-2" x1="1010.88" y1="0.35" x2="502.45" y2="508.78" />
            <line class="cls-2" x1="1017.48" y1="0.35" x2="509.05" y2="508.78" />
            <line class="cls-2" x1="1024.09" y1="0.35" x2="515.66" y2="508.78" />
            <line class="cls-2" x1="1030.69" y1="0.35" x2="522.27" y2="508.78" />
            <line class="cls-2" x1="1037.3" y1="0.35" x2="528.87" y2="508.78" />
            <line class="cls-2" x1="1043.91" y1="0.35" x2="535.48" y2="508.78" />
            <line class="cls-2" x1="1050.51" y1="0.35" x2="542.08" y2="508.78" />
            <line class="cls-2" x1="1057.12" y1="0.35" x2="548.69" y2="508.78" />
            <line class="cls-2" x1="1063.73" y1="0.35" x2="555.3" y2="508.78" />
            <line class="cls-2" x1="1070.33" y1="0.35" x2="561.9" y2="508.78" />
            <line class="cls-2" x1="1076.94" y1="0.35" x2="568.51" y2="508.78" />
            <line class="cls-2" x1="1083.55" y1="0.35" x2="575.12" y2="508.78" />
            <line class="cls-2" x1="1090.15" y1="0.35" x2="581.72" y2="508.78" />
            <line class="cls-2" x1="1096.76" y1="0.35" x2="588.33" y2="508.78" />
            <line class="cls-2" x1="1103.37" y1="0.35" x2="594.94" y2="508.78" />
            <line class="cls-2" x1="1109.97" y1="0.35" x2="601.54" y2="508.78" />
            <line class="cls-2" x1="1116.58" y1="0.35" x2="608.15" y2="508.78" />
            <line class="cls-2" x1="1123.19" y1="0.35" x2="614.76" y2="508.78" />
            <line class="cls-2" x1="1129.79" y1="0.35" x2="621.36" y2="508.78" />
            <line class="cls-2" x1="1136.4" y1="0.35" x2="627.97" y2="508.78" />
            <line class="cls-2" x1="1143" y1="0.35" x2="634.58" y2="508.78" />
            <line class="cls-2" x1="1149.61" y1="0.35" x2="641.18" y2="508.78" />
            <line class="cls-2" x1="1156.22" y1="0.35" x2="647.79" y2="508.78" />
            <line class="cls-2" x1="1162.82" y1="0.35" x2="654.39" y2="508.78" />
            <line class="cls-2" x1="1169.43" y1="0.35" x2="661" y2="508.78" />
            <line class="cls-2" x1="1176.04" y1="0.35" x2="667.61" y2="508.78" />
            <line class="cls-2" x1="1182.64" y1="0.35" x2="674.21" y2="508.78" />
            <line class="cls-2" x1="1189.25" y1="0.35" x2="680.82" y2="508.78" />
            <line class="cls-2" x1="1195.86" y1="0.35" x2="687.43" y2="508.78" />
            <line class="cls-2" x1="1202.46" y1="0.35" x2="694.03" y2="508.78" />
            <line class="cls-2" x1="1209.07" y1="0.35" x2="700.64" y2="508.78" />
            <line class="cls-2" x1="1215.68" y1="0.35" x2="707.25" y2="508.78" />
            <line class="cls-2" x1="1222.28" y1="0.35" x2="713.85" y2="508.78" />
            <line class="cls-2" x1="1228.89" y1="0.35" x2="720.46" y2="508.78" />
            <line class="cls-2" x1="1235.5" y1="0.35" x2="727.07" y2="508.78" />
            <line class="cls-2" x1="1242.1" y1="0.35" x2="733.67" y2="508.78" />
            <line class="cls-2" x1="1248.71" y1="0.35" x2="740.28" y2="508.78" />
            <line class="cls-2" x1="1255.31" y1="0.35" x2="746.89" y2="508.78" />
            <line class="cls-2" x1="1261.92" y1="0.35" x2="753.49" y2="508.78" />
            <line class="cls-2" x1="1268.53" y1="0.35" x2="760.1" y2="508.78" />
            <line class="cls-2" x1="1275.13" y1="0.35" x2="766.7" y2="508.78" />
            <line class="cls-2" x1="1281.74" y1="0.35" x2="773.31" y2="508.78" />
            <line class="cls-2" x1="1288.35" y1="0.35" x2="779.92" y2="508.78" />
            <line class="cls-2" x1="1294.95" y1="0.35" x2="786.52" y2="508.78" />
            <line class="cls-2" x1="1301.56" y1="0.35" x2="793.13" y2="508.78" />
            <line class="cls-2" x1="1308.17" y1="0.35" x2="799.74" y2="508.78" />
            <line class="cls-2" x1="1314.77" y1="0.35" x2="806.34" y2="508.78" />
            <line class="cls-2" x1="1321.38" y1="0.35" x2="812.95" y2="508.78" />
            <line class="cls-2" x1="1327.99" y1="0.35" x2="819.56" y2="508.78" />
        </pattern>
    </defs>
    <path class="cls-3"
        d="M545.16,120.25c.43.34,44.63,20.72,68.36,61.2s-.6,6.74-23.93-14.84c-19.1-17.66-59.92-40.71-55.29-46.36S545.16,120.25,545.16,120.25Z"
        transform="translate(-71.11 -63.7)" />
    <path class="cls-3" d="M593,423.69s55-73.34,35-174.52S502,123.06,431,163s-171,52.31-208-27.36-177,92.71-90,288Z"
        transform="translate(-71.11 -63.7)" />
    <path class="cls-4"
        d="M172.14,423.69s-43.33-102.54,36.19-139.46,6.34,102.85,87.17,97.5c31.45-2.09,91.12-44,73.18-139.14C358,185.94,483.49,219.72,504.41,423.69Z"
        transform="translate(-71.11 -63.7)" />
    <path class="cls-3" d="M624.5,209.25s3.33,10.42,6.17,12.42,3.33-4.17,0-10.17S622.82,204.64,624.5,209.25Z"
        transform="translate(-71.11 -63.7)" />
    <path class="cls-4" d="M119,337.79s-8-41.94,0-74.7,3.2,10,3.33,30C122.5,317.34,127,369.25,119,337.79Z"
        transform="translate(-71.11 -63.7)" />
    <path class="cls-4" d="M123,241.17s.09-10,2.59-12.17,1.07,10.71,0,13.26C124.33,245.25,122.85,244.18,123,241.17Z"
        transform="translate(-71.11 -63.7)" />
    <path class="cls-4"
        d="M546.45,364.94a24.1,24.1,0,0,1,26.53-5.7s7.43-8.76,16-5.25c0,0,9.49-16.56,33.53-18.18,25.17-1.7,37.49,18,37.49,18s24.92-7.28,34.77,11.12Z"
        transform="translate(-71.11 -63.7)" />
    <path class="cls-4"
        d="M200.87,194.68a21.07,21.07,0,0,0-23.21-5s-6.5-7.67-14-4.6c0,0-8.31-14.49-29.34-15.91-22-1.49-32.81,15.76-32.81,15.76s-21.8-6.37-30.43,9.73Z"
        transform="translate(-71.11 -63.7)" />
    <rect class="cls-5" x="26.89" y="359.99" width="554" height="13.49" rx="6.74" />
    <path class="cls-6"
        d="M645.26,430.44H104.74a6.75,6.75,0,0,1-5.82-3.38,6.71,6.71,0,0,0-.92,3.38h0a6.76,6.76,0,0,0,6.74,6.74H645.26a6.76,6.76,0,0,0,6.74-6.74h0a6.71,6.71,0,0,0-.92-3.38A6.75,6.75,0,0,1,645.26,430.44Z"
        transform="translate(-71.11 -63.7)" />
    <circle class="cls-7" cx="191.14" cy="30.41" r="30.41" />
    <path class="cls-8" d="M283.76,72.61a30.42,30.42,0,0,1-48.08,36.3,30.41,30.41,0,1,0,48.08-36.3Z"
        transform="translate(-71.11 -63.7)" />
    <rect class="cls-9" x="340.72" y="14.33" width="177.79" height="244.07" rx="7.66" />
    <rect class="cls-10" x="333.7" y="21.35" width="177.79" height="244.07" rx="7.66" />
    <path class="cls-11" d="M404.81,287.33v34.13a7.66,7.66,0,0,0,7.66,7.66H574.94a7.66,7.66,0,0,0,7.66-7.66V287.33Z"
        transform="translate(-71.11 -63.7)" />
    <circle class="cls-12" cx="422.59" cy="245.01" r="10.7" />
    <path class="cls-4"
        d="M493.71,303.45a1,1,0,0,1,1,.95v3.44a.95.95,0,1,1-1.9,0V304.4a1,1,0,0,1,.95-.95m0-.75a1.7,1.7,0,0,0-1.7,1.7v3.44a1.7,1.7,0,0,0,3.4,0V304.4a1.7,1.7,0,0,0-1.7-1.7Z"
        transform="translate(-71.11 -63.7)" />
    <path class="cls-12" d="M490.35,306.38v1a3.36,3.36,0,0,0,3.36,3.36h0v3.48" transform="translate(-71.11 -63.7)" />
    <path class="cls-12" d="M497.06,306.38v1a3.36,3.36,0,0,1-3.35,3.36h0" transform="translate(-71.11 -63.7)" />
    <line class="cls-12" x1="421.1" y1="250.54" x2="424.13" y2="250.54" />
    <circle class="cls-12" cx="374.7" cy="245.01" r="10.7" />
    <path class="cls-12"
        d="M450,305.85h-8.29a1.07,1.07,0,0,0-1.07,1.07v4.29a1.07,1.07,0,0,0,1.07,1.07H450a1.07,1.07,0,0,0,1.07-1.07v-4.29A1.07,1.07,0,0,0,450,305.85Zm-4.14,4.76a1.54,1.54,0,1,1,1.54-1.54A1.54,1.54,0,0,1,445.82,310.61Z"
        transform="translate(-71.11 -63.7)" />
    <rect class="cls-4" x="370.56" y="241.22" width="2.28" height="0.92" />
    <circle class="cls-12" cx="470.48" cy="245.01" r="10.7" />
    <path class="cls-4"
        d="M541.6,313.18a4.2,4.2,0,1,1,0-8.39v1a3.18,3.18,0,1,0,3.17,3.17,3.12,3.12,0,0,0-1-2.26l.72-.74a4.2,4.2,0,0,1-2.93,7.2Z"
        transform="translate(-71.11 -63.7)" />
    <polygon class="cls-4" points="472.66 241.6 470.32 242.94 470.32 240.25 472.66 241.6" />
    <polygon class="cls-13"
        points="345.48 34.01 349.07 30.41 349.91 31.25 347.15 34.01 349.91 36.77 349.07 37.6 345.48 34.01" />
    <path class="cls-14"
        d="M474.9,189.77s23.46,9.7,27-17.44-19.84-47.43-42.49-38.8c0,0-17.43,2.4-14.32,22.75s-1.45,24.46-.37,30.21S456.1,193.3,474.9,189.77Z"
        transform="translate(-71.11 -63.7)" />
    <path class="cls-15"
        d="M452.78,173.44s2.8,11.84,4.16,18.36,16-5.31,16-5.31,3.28-5.23,1.09-7.46-4.6-4.82-8.11-5.59-8.79-2.07-9.91-1.85A12.43,12.43,0,0,0,452.78,173.44Z"
        transform="translate(-71.11 -63.7)" />
    <path class="cls-16" d="M439.83,287.33c9-43.32,2.85-95.61,2.85-95.61l32.13-5.23,30.33,4.11,6.36,96.73Z"
        transform="translate(-71.11 -63.7)" />
    <path class="cls-11"
        d="M497.67,216.66h-2v-.88H494.3V214h-2.06v1.78h-1.39v.88h-2a.65.65,0,0,0-.66.66v12.44a.66.66,0,0,0,.66.67h8.8a.67.67,0,0,0,.66-.67V217.32A.66.66,0,0,0,497.67,216.66Z"
        transform="translate(-71.11 -63.7)" />
    <rect class="cls-4" x="416.5" y="152.36" width="10.13" height="13.77" rx="0.66" />
    <rect class="cls-11" x="419.14" y="151.48" width="4.84" height="1.78" />
    <rect class="cls-17" x="420.53" y="149.7" width="2.07" height="2.67" />
    <rect class="cls-16" x="417.8" y="159.77" width="7.53" height="0.65" />
    <rect class="cls-16" x="417.8" y="161.09" width="7.53" height="0.65" />
    <rect class="cls-16" x="417.8" y="162.4" width="7.53" height="0.65" />
    <rect class="cls-16" x="417.8" y="163.71" width="7.53" height="0.65" />
    <rect class="cls-16" x="420.98" y="154.74" width="1.17" height="4.09" />
    <rect class="cls-16" x="419.51" y="156.2" width="4.09" height="1.17" />
    <line class="cls-18" x1="385.82" y1="128.1" x2="393.55" y2="167.46" />
    <line class="cls-18" x1="414.61" y1="130.8" x2="399.01" y2="166.13" />
    <path class="cls-11"
        d="M491.37,237.87l-12.62,9.61s-2.5-2.79-2.5-3.85-1.29-4.46.48-5.38S491.37,237.87,491.37,237.87Z"
        transform="translate(-71.11 -63.7)" />
    <path class="cls-11"
        d="M481.24,251.36l-3-4.71a10.87,10.87,0,0,0-2.76-2.88c-1.27-.66-11.75,2.86-18.23,3.64-3.3.4-8.37,1.19-12.9,2-.22,4.65-.55,9.39-1,14.16Z"
        transform="translate(-71.11 -63.7)" />
    <polygon class="cls-19"
        points="395.57 164.22 413.89 124.16 413.89 124.16 403.7 122.78 388.28 125.29 395.57 164.22" />
    <path class="cls-20" d="M484.43,168.6l-7.7,24.56a6.7,6.7,0,0,1-6.39,4.69h0a6.69,6.69,0,0,1-6.68-7l.49-10.74Z"
        transform="translate(-71.11 -63.7)" />
    <path class="cls-21" d="M463.78,188.3c14.79-1,18.36-15.18,18.36-15.18l-4.28-.79-13.71,7.79Z"
        transform="translate(-71.11 -63.7)" />
    <path class="cls-20"
        d="M484.43,168.6s5.76-1.43,5-7.4-5.52-5.2-7.1-1.95a12.64,12.64,0,0,0-1.15,3.95l-1.14-.12s-2.74-10.19-6.64-12.62-18.07-1.47-20.88-.26c-3.11,1.33-2.88,26.08,5.72,32.35S481.12,178.21,484.43,168.6Z"
        transform="translate(-71.11 -63.7)" />
    <line class="cls-22" x1="402.38" y1="97.46" x2="407.21" y2="97.46" />
    <path class="cls-22" d="M459.62,161.26s1.79-1.12,3.18,0" transform="translate(-71.11 -63.7)" />
    <circle class="cls-14" cx="396.93" cy="98.95" r="1.4" />
    <path class="cls-14"
        d="M468.68,161.46a7.07,7.07,0,0,0,1.95-.26c.46-.24-.45.71-1.36.8-.5.05.44.16.9,0s-.5.68-1.14.66S468.68,161.46,468.68,161.46Z"
        transform="translate(-71.11 -63.7)" />
    <path class="cls-14"
        d="M455.13,161.53a7,7,0,0,0,1.94-.26c.46-.24-.44.71-1.35.8-.5.05.44.16.9,0s-.5.68-1.14.66S455.13,161.53,455.13,161.53Z"
        transform="translate(-71.11 -63.7)" />
    <circle class="cls-14" cx="383.7" cy="98.95" r="1.21" />
    <path class="cls-21" d="M461.23,163.2a56.52,56.52,0,0,0-3.62,6.1c-.52,1.46,3.62,1.22,3.62,1.22Z"
        transform="translate(-71.11 -63.7)" />
    <path class="cls-4" d="M456.94,173.44h9.74S461.3,182.65,456.94,173.44Z" transform="translate(-71.11 -63.7)" />
    <path class="cls-14" d="M470.91,160.2a13.33,13.33,0,0,0-4.9-.66l-.07-1.39a14.46,14.46,0,0,1,5.47.74Z"
        transform="translate(-71.11 -63.7)" />
    <path class="cls-14" d="M452,160.2l-.5-1.31a14.46,14.46,0,0,1,5.47-.74l-.07,1.39A13.33,13.33,0,0,0,452,160.2Z"
        transform="translate(-71.11 -63.7)" />
    <path class="cls-21"
        d="M483.94,160.81s1.33-1.75,2.6-1.27,1.61,4.72-1,6.21c0,0,1.43-2.71.67-4.15A1.8,1.8,0,0,0,483.94,160.81Z"
        transform="translate(-71.11 -63.7)" />
    <path class="cls-20"
        d="M530.92,219.91l7.34,6.91a.82.82,0,0,0,1.34-.33l11.17-33.37,11.43,4.5-11.35,38.43A11.52,11.52,0,0,1,532,241.29l-11.45-10.5Z"
        transform="translate(-71.11 -63.7)" />
    <path class="cls-21" d="M520.56,230.79l4.3,3.94L531,220h0l-.18-.05Z" transform="translate(-71.11 -63.7)" />
    <polygon class="cls-16" points="434.03 126.89 462.82 153.27 446.9 170 421.56 141.12 434.03 126.89" />
    <polygon class="cls-11" points="435.16 144.07 436.05 157.64 446.9 170 435.16 144.07" />
    <path class="cls-20"
        d="M437.24,232.25l-6.83,10.91a.82.82,0,0,0,.9,1.05L469,238.92l1.14,12.23-44,7.62a11.26,11.26,0,0,1-11.75-16.94L422.93,227Z"
        transform="translate(-71.11 -63.7)" />
    <path class="cls-21" d="M423,227l-.16.08-.1.17,9.93,12.23,4.39-7c0-.11,0-.23-.05-.34Z"
        transform="translate(-71.11 -63.7)" />
    <polygon class="cls-16" points="385.4 142.92 367.89 172.42 348.53 161.83 371.56 128.01 385.4 142.92" />
    <line class="cls-18" x1="351.65" y1="160.8" x2="367.3" y2="169.05" />
    <line class="cls-18" x1="458.97" y1="152.63" x2="447.89" y2="164.8" />
    <path class="cls-11" d="M444.49,218.47,439,236.12l5.69-9.57C444.65,223.75,444.58,221,444.49,218.47Z"
        transform="translate(-71.11 -63.7)" />
    <path class="cls-14"
        d="M449.49,155.29s12.9-.28,19.47,0l1.17-3.25.95,3.25s4.74.14,6.93,0,2.07-10.67-6.6-12.08C463.54,141.92,449.32,140.24,449.49,155.29Z"
        transform="translate(-71.11 -63.7)" />
    <circle class="cls-22" cx="383.12" cy="98.27" r="5.38" />
    <circle class="cls-22" cx="397.07" cy="98.27" r="5.38" />
    <path class="cls-14"
        d="M477.16,155.35S482.91,177,474,185.28s16.57,10.07,22.83.42,7.51-31.42-2-34.09S477.16,155.35,477.16,155.35Z"
        transform="translate(-71.11 -63.7)" />
    <path class="cls-20" d="M567,170.89s5.43,1,2.65,10.12c-1.83,6-7.43,16.61-7.43,16.61l-11.43-4.5-5.13-11.07Z"
        transform="translate(-71.11 -63.7)" />
    <rect class="cls-11" x="521.16" y="141.27" width="54.79" height="40.77" rx="1.56"
        transform="translate(159.98 573.63) rotate(-72.7)" />
    <rect class="cls-4" x="525.04" y="144.38" width="47.03" height="34.56" rx="1.26"
        transform="translate(159.98 573.63) rotate(-72.7)" />
    <rect class="cls-11" x="539.56" y="143.73" width="6.08" height="6.08"
        transform="translate(170.01 557.48) rotate(-72.7)" />
    <rect class="cls-11" x="549.01" y="144.15" width="1.82" height="26.32"
        transform="translate(165.09 571.86) rotate(-72.7)" />
    <rect class="cls-11" x="547.99" y="147.41" width="1.82" height="26.32"
        transform="translate(161.26 573.19) rotate(-72.7)" />
    <rect class="cls-11" x="546.97" y="150.68" width="1.82" height="26.32"
        transform="translate(157.42 574.51) rotate(-72.7)" />
    <rect class="cls-11" x="545.95" y="153.95" width="1.82" height="26.32"
        transform="translate(153.59 575.84) rotate(-72.7)" />
    <rect class="cls-11" x="544.94" y="157.21" width="1.82" height="26.32"
        transform="translate(149.75 577.16) rotate(-72.7)" />
    <rect class="cls-11" x="534.47" y="169.95" width="1.82" height="8.66"
        transform="translate(138.67 569.91) rotate(-72.7)" />
    <rect class="cls-11" x="551.33" y="175.2" width="1.82" height="8.66"
        transform="translate(145.5 589.7) rotate(-72.7)" />
    <rect class="cls-11" x="553.71" y="130.91" width="3.84" height="16.07"
        transform="translate(186.64 564.42) rotate(-72.7)" />
    <rect class="cls-16" x="554.37" y="128.93" width="4.37" height="14.12"
        transform="translate(190.11 563.22) rotate(-72.7)" />
    <rect class="cls-11" x="555.68" y="130.02" width="3.36" height="6.73"
        transform="translate(193.17 562.17) rotate(-72.7)" />
    <rect class="cls-20" x="562.42" y="168.72" width="3.89" height="6.91" rx="1.95"
        transform="translate(213.84 628.16) rotate(-78.7)" />
    <rect class="cls-20" x="561.65" y="172.54" width="3.89" height="6.91" rx="1.95"
        transform="translate(209.48 630.48) rotate(-78.7)" />
    <rect class="cls-20" x="560.89" y="176.36" width="3.89" height="6.91" rx="1.95"
        transform="translate(205.12 632.81) rotate(-78.7)" />
    <rect class="cls-20" x="560.13" y="180.1" width="3.89" height="6.91" rx="1.95"
        transform="translate(200.84 635.07) rotate(-78.7)" />
    <rect class="cls-20" x="470.21" y="235.92" width="21.79" height="3.89" rx="1.95"
        transform="translate(-101 10.04) rotate(-8.5)" />
    <rect class="cls-20" x="470.8" y="240.38" width="11.87" height="3.89" rx="1.95"
        transform="translate(-101.7 9.45) rotate(-8.5)" />
    <rect class="cls-20" x="470.94" y="244.22" width="11.87" height="3.89" rx="1.95"
        transform="matrix(0.99, -0.15, 0.15, 0.99, -102.27, 9.51)" />
    <rect class="cls-20" x="471.07" y="248.07" width="11.87" height="3.89" rx="1.95"
        transform="translate(-102.84 9.57) rotate(-8.5)" />
    <rect class="cls-20" x="470.08" y="233.14" width="9.05" height="3.89" rx="1.95"
        transform="translate(-100.66 9.05) rotate(-8.5)" />
    <path class="cls-20"
        d="M470.84,234l-8.31,5.84,2.13,12.36a19.46,19.46,0,0,0,8.33.4,12.4,12.4,0,0,0,1.62-4.62c.15-2.19-.56-9.26-.56-9.26s-.71-3.35-1.06-3.58S470.84,234,470.84,234Z"
        transform="translate(-71.11 -63.7)" />
    <circle class="cls-4" cx="422.62" cy="206.01" r="10.68" />
    <path class="cls-11"
        d="M496.9,270.85l-.86.87,2.69,2.7.87-.87a.27.27,0,0,0,0-.39l-2.3-2.31A.3.3,0,0,0,496.9,270.85Zm-8.33-3.2c.32,1.51,2.19,3.48,3,4.26s2.75,2.64,4.25,3a3.53,3.53,0,0,0,2.69-.25L495.81,272h0c-.26.14-.95.29-2.16-1.07l-.2-.2-.69-.68-.19-.2c-1.36-1.21-1.22-1.91-1.07-2.17h0L488.82,265A3.58,3.58,0,0,0,488.57,267.65Zm1.33-3.8-.87.86,2.7,2.7.86-.87a.27.27,0,0,0,0-.39l-2.3-2.3A.27.27,0,0,0,489.9,263.85Z"
        transform="translate(-71.11 -63.7)" />
    <polygon class="cls-10" points="333.7 56.63 303.89 87.25 333.7 71.97 333.7 56.63" />
    <rect class="cls-11" x="76.05" y="229.42" width="93.88" height="64.67" rx="3.65" />
    <path class="cls-4" d="M219.53,296.84a2.54,2.54,0,0,0-3.09,3.11,2.5,2.5,0,0,0,1.84,1.82,2.54,2.54,0,1,0,1.25-4.93Z"
        transform="translate(-71.11 -63.7)" />
    <path class="cls-4" d="M227.64,296.84a2.54,2.54,0,1,0,1.83,1.83A2.5,2.5,0,0,0,227.64,296.84Z"
        transform="translate(-71.11 -63.7)" />
    <path class="cls-4" d="M237.57,299.93a2.55,2.55,0,1,0-1.82,1.84A2.54,2.54,0,0,0,237.57,299.93Z"
        transform="translate(-71.11 -63.7)" />
    <rect class="cls-4" x="79.92" y="240.81" width="86.13" height="49.17" rx="1.81" />
    <rect class="cls-11" x="89.53" y="248.84" width="27.68" height="3.8" />
    <rect class="cls-11" x="89.53" y="256.62" width="34" height="3.8" />
    <rect class="cls-11" x="89.53" y="264.4" width="66.91" height="3.8" />
    <rect class="cls-11" x="89.53" y="272.19" width="66.91" height="3.8" />
    <rect class="cls-11" x="89.53" y="279.97" width="66.91" height="3.8" />
    <rect class="cls-11" x="146.37" y="90.05" width="51.95" height="23.57" rx="2.56" />
    <polygon class="cls-11" points="178.52 113.62 191.38 122.75 188.62 113.62 178.52 113.62" />
    <circle class="cls-4" cx="160.61" cy="101.69" r="2.35" />
    <circle class="cls-4" cx="172.35" cy="101.69" r="2.35" />
    <circle class="cls-4" cx="184.08" cy="101.69" r="2.35" />
    <circle class="cls-11" cx="284.72" cy="52.57" r="22.16" />
    <rect class="cls-4" x="271.8" y="46.11" width="18.04" height="12.92" rx="0.82" />
    <path class="cls-4"
        d="M367.7,121l-5-1.51a.82.82,0,0,1-.58-.79v-4.77a.82.82,0,0,1,.58-.79l5-1.51a.83.83,0,0,1,1.06.79v7.79A.82.82,0,0,1,367.7,121Z"
        transform="translate(-71.11 -63.7)" />
    <polygon class="cls-11" points="270.2 66.53 264.78 78.6 276.71 71.45 270.2 66.53" />
    <path class="cls-23"
        d="M413.87,368.28l18.59-12.14v30.73Zm-42.05-14.5h60.49l-30.24,19.75ZM371.59,387l.05-30.84,18.62,12.16Zm30.47-11h0l10.31-6.73,17.82,17.82H373.93l17.82-17.82Z"
        transform="translate(-71.11 -63.7)" />
    <path class="cls-18"
        d="M224.5,205.83H149.72a2.56,2.56,0,0,0-2.56,2.56v21.27a2.56,2.56,0,0,0,2.56,2.56H185l10.5,7.46-2.25-7.46H224.5a2.56,2.56,0,0,0,2.56-2.56V208.39A2.56,2.56,0,0,0,224.5,205.83Z"
        transform="translate(-71.11 -63.7)" />
    <rect class="cls-11" x="84.03" y="149.53" width="34" height="3.8" />
    <rect class="cls-11" x="84.03" y="157.31" width="66.91" height="3.8" />
    <path class="cls-20" d="M377.14,163s4.47.8,2.18,8.33c-1.5,4.95-6.12,13.69-6.12,13.69l-8.88-3.5-4.76-9.33Z"
        transform="translate(-71.11 -63.7)" />
    <path class="cls-20"
        d="M348.89,202.37l5.71,5.37a.64.64,0,0,0,1-.26l8.68-25.93,8.88,3.5-8.82,29.86A9,9,0,0,1,349.74,219l-8.9-8.15Z"
        transform="translate(-71.11 -63.7)" />
    <path class="cls-21" d="M340.84,210.83l3.34,3.06L349,202.46h0l-.15,0Z" transform="translate(-71.11 -63.7)" />
    <rect class="cls-24" x="363.06" y="155.26" width="12.84" height="21" rx="1.14"
        transform="translate(627.58 337.87) rotate(-168.55)" />
    <rect class="cls-4" x="364.06" y="156.21" width="9.77" height="17.87" rx="0.61"
        transform="translate(626.64 336.56) rotate(-168.55)" />
    <rect class="cls-20" x="372.14" y="162.48" width="5.69" height="3.21" rx="1.6"
        transform="translate(639.43 334.75) rotate(-168.7)" />
    <rect class="cls-20" x="371.51" y="165.63" width="5.69" height="3.21" rx="1.6"
        transform="translate(637.57 340.86) rotate(-168.7)" />
    <rect class="cls-20" x="370.88" y="168.77" width="5.69" height="3.21" rx="1.6"
        transform="translate(635.71 346.97) rotate(-168.7)" />
    <rect class="cls-20" x="370.25" y="171.86" width="5.69" height="3.21" rx="1.6"
        transform="translate(633.87 352.96) rotate(-168.7)" />
    <rect class="cls-20" x="359.44" y="170.32" width="5.45" height="3.21" rx="1.6"
        transform="translate(612.51 347.77) rotate(-168.7)" />
    <polygon class="cls-25" points="287.34 349.4 309.42 356.57 309.42 359.99 277.17 359.99 277.92 349.4 287.34 349.4" />
    <line class="cls-26" x1="297.68" y1="351.72" x2="296.8" y2="354.05" />
    <line class="cls-26" x1="294.89" y1="350.84" x2="294.01" y2="353.17" />
    <line class="cls-26" x1="292.1" y1="349.97" x2="291.22" y2="352.3" />
    <polygon class="cls-20" points="287.34 349.4 285.25 335.01 275.62 335.01 277.92 349.4 287.34 349.4" />
    <polygon class="cls-25" points="210.41 349.4 188.33 356.57 188.33 359.99 220.58 359.99 219.83 349.4 210.41 349.4" />
    <line class="cls-26" x1="200.08" y1="351.72" x2="200.95" y2="354.05" />
    <line class="cls-26" x1="202.86" y1="350.84" x2="203.74" y2="353.17" />
    <line class="cls-26" x1="205.65" y1="349.97" x2="206.53" y2="352.3" />
    <polygon class="cls-20" points="210.41 349.4 212.51 335.01 222.13 335.01 219.83 349.4 210.41 349.4" />
    <polygon class="cls-16" points="257.75 115.89 280.12 136.39 267.75 149.39 249.75 126.01 257.75 115.89" />
    <polygon class="cls-11"
        points="233.63 110.17 215.75 117.14 215.75 178.89 265.5 178.89 257.75 115.89 242.5 110.17 233.63 110.17" />
    <path class="cls-20" d="M299.18,159.92l5.51,17.56a4.8,4.8,0,0,0,4.57,3.36h0a4.79,4.79,0,0,0,4.78-5l-.35-7.68Z"
        transform="translate(-71.11 -63.7)" />
    <path class="cls-21" d="M314,174c-10.58-.72-13.13-10.86-13.13-10.86l3.06-.56,9.81,5.57Z"
        transform="translate(-71.11 -63.7)" />
    <path class="cls-14"
        d="M324.1,145.2s4.49,8.44-4.81,13.43c-8,4.25-4.41-8.26-3.11-9.53s2.77-2.81,3.84-2.86A26.47,26.47,0,0,0,324.1,145.2Z"
        transform="translate(-71.11 -63.7)" />
    <path class="cls-14"
        d="M298.14,141.93s-7.7.72-7,7.37c1,8.83,10.17,17.47,10.17,17.47l-1.15-8.22s-.18-5.58-.07-6a55,55,0,0,0-.95-6C299,145.85,298.14,141.93,298.14,141.93Z"
        transform="translate(-71.11 -63.7)" />
    <path class="cls-20"
        d="M299.18,159.92a4.82,4.82,0,0,1-3.6-5.3c.52-4.27,3.95-3.71,5.08-1.39a9,9,0,0,1,.83,2.82l.81-.09s2-7.28,4.75-9,12.93-1.05,14.94-.19c2.22,1,2.05,18.66-4.1,23.15S301.55,166.79,299.18,159.92Z"
        transform="translate(-71.11 -63.7)" />
    <path class="cls-14"
        d="M298.11,151.45c3,.3,3.38,4.6,3.38,4.6l1.25-.09c.7-4.21,4.38-8.6,11-6.75s10.48-.87,11.93-5c0,0,3.72-10.16-4.61-16.82a10,10,0,0,1,.21,5s-1.75-5.42-6.5-5c0,0,1.56,2.08,1,3.64s-20.33-1.64-17.6,10.87Z"
        transform="translate(-71.11 -63.7)" />
    <path class="cls-19" d="M311.74,148.83h0Z" transform="translate(-71.11 -63.7)" />
    <path class="cls-19"
        d="M323.72,146c.42-3.49-3-5.33-3-5.33s.87,2.12.58,3.21a7,7,0,0,0-5.1-3.21,5.21,5.21,0,0,1,1.27,4c-.25,2.54-3.21,4.38-5.39,4.16a11.36,11.36,0,0,0,5.32,1.42C320.7,150.42,323.3,149.42,323.72,146Z"
        transform="translate(-71.11 -63.7)" />
    <polygon class="cls-14" points="265.5 178.89 293.3 337.89 265.5 337.89 236.75 178.89 265.5 178.89" />
    <polygon class="cls-14" points="242.18 178.89 230.75 337.89 204.41 337.89 215.75 178.89 242.18 178.89" />
    <rect class="cls-14" x="302.22" y="242.59" width="22.14" height="30.5"
        transform="translate(555.47 451.98) rotate(-180)" />
    <line class="cls-27" x1="261.59" y1="183.6" x2="226.83" y2="183.6" />
    <path class="cls-20"
        d="M281.17,215.47l-4.58,7.28a3.25,3.25,0,0,0,.24,3.79l18.5,24.18-6.8,7.38-24.34-27.16a8.26,8.26,0,0,1-1.12-9.93L270,209.4Z"
        transform="translate(-71.11 -63.7)" />
    <polygon class="cls-21" points="222.13 184.3 217.41 194.39 224.21 187.02 222.13 184.3" />
    <polygon class="cls-21" points="210.06 151.76 198.87 145.7 206.77 156.99 210.06 151.76" />
    <polygon class="cls-16" points="215.75 117.14 197.08 144.53 210.91 153.55 215.75 144.53 215.75 117.14" />
    <line class="cls-27" x1="225.87" y1="185.47" x2="216.58" y2="195.67" />
    <line class="cls-27" x1="257.78" y1="186.36" x2="265.57" y2="195.04" />
    <polyline class="cls-27" points="245.25 188.05 245.25 206.01 238.25 206.01" />
    <rect class="cls-28" x="241.33" y="178.89" width="8.92" height="4.72" />
    <path class="cls-27" d="M345.11,317.34a50.77,50.77,0,0,1,3.18,16.25" transform="translate(-71.11 -63.7)" />
    <line class="cls-27" x1="289" y1="332.89" x2="267.25" y2="332.89" />
    <line class="cls-27" x1="228.75" y1="332.89" x2="207.58" y2="332.89" />
    <path class="cls-27" d="M285.11,319.09a76.66,76.66,0,0,0-1.62,14.5" transform="translate(-71.11 -63.7)" />
    <line class="cls-18" x1="276.34" y1="136.54" x2="267.5" y2="145.7" />
    <line class="cls-18" x1="210.33" y1="150.14" x2="200.67" y2="143.39" />
    <polygon class="cls-16" points="230.75 129.39 222.16 129.39 223.3 139.3 229.41 139.3 230.75 129.39" />
    <line class="cls-29" x1="290.36" y1="92.93" x2="280.43" y2="90.03" />
    <line class="cls-29" x1="291.73" y1="91.21" x2="288.51" y2="85.34" />
    <line class="cls-29" x1="290.6" y1="95.11" x2="284.72" y2="98.34" />
    <circle class="cls-14" cx="239.79" cy="91.96" r="1" />
    <circle class="cls-14" cx="249.25" cy="91.96" r="0.86" />
    <path class="cls-21" d="M315.78,156.05a38.89,38.89,0,0,1,2.58,4.37c.38,1-2.58.87-2.58.87Z"
        transform="translate(-71.11 -63.7)" />
    <path class="cls-4" d="M318.85,163.38h-7S315.73,170,318.85,163.38Z" transform="translate(-71.11 -63.7)" />
    <path class="cls-30" d="M308.67,153.44a9.93,9.93,0,0,1,3.71-.5" transform="translate(-71.11 -63.7)" />
    <path class="cls-30" d="M322.55,153.44a9.85,9.85,0,0,0-3.7-.5" transform="translate(-71.11 -63.7)" />
    <path class="cls-21"
        d="M299.53,154.35s-.95-1.26-1.86-.91-1.15,3.37.69,4.44c0,0-1-1.94-.48-3A1.29,1.29,0,0,1,299.53,154.35Z"
        transform="translate(-71.11 -63.7)" />
    <path class="cls-6"
        d="M216.54,423.69s-17-14-16.75-18.39,4.88-.18,4.88-.18-10.39-15.72-8.13-23.4,11.38,6,15.45,19.77c0,0-1.76-9.26,1.81-9.92,5.33-1,7.59,32.12,7.59,32.12Z"
        transform="translate(-71.11 -63.7)" />
    <rect class="cls-5" x="208.23" y="378.81" width="0.72" height="45.04"
        transform="translate(-227.61 70.63) rotate(-26.36)" />
    <path class="cls-6"
        d="M235.1,423.69s17-11.92,16.75-15.7-4.88-.15-4.88-.15,10.39-13.42,8.13-20-11.39,5.16-15.45,16.88c0,0,1.76-7.91-1.81-8.47-5.33-.85-11,27.42-11,27.42Z"
        transform="translate(-71.11 -63.7)" />
    <rect class="cls-5" x="223.13" y="404.24" width="39.84" height="0.72"
        transform="translate(-300 348.1) rotate(-59.88)" />
    <path class="cls-5"
        d="M221.39,423.69s-8.1-25.14-5.45-30.59,6.14,4.67,6.14,4.67.72-24,5.9-27.83,2.77,27.95,2.77,27.95,3.38-4.7,7-4.21-10,30-10,30Z"
        transform="translate(-71.11 -63.7)" />
    <rect class="cls-6" x="202.74" y="398.24" width="47.69" height="0.72"
        transform="translate(-262.61 523.14) rotate(-84.62)" />
    <path class="cls-6"
        d="M482.54,423.69S459,404.38,459.38,398.25s6.75-.25,6.75-.25-14.38-21.75-11.25-32.38S470.63,374,476.25,393c0,0-2.43-12.81,2.5-13.73,7.38-1.37,10.5,44.44,10.5,44.44Z"
        transform="translate(-71.11 -63.7)" />
    <rect class="cls-5" x="471.04" y="361.59" width="1" height="62.31"
        transform="translate(-196.47 186.5) rotate(-26.36)" />
    <path class="cls-6"
        d="M508.22,423.69S531.76,407.2,531.39,402s-6.75-.21-6.75-.21,14.37-18.57,11.25-27.64-15.75,7.13-21.38,23.35c0,0,2.44-10.93-2.5-11.72-7.37-1.17-15.16,37.94-15.16,37.94Z"
        transform="translate(-71.11 -63.7)" />
    <rect class="cls-5" x="491.67" y="396.78" width="55.11" height="1"
        transform="translate(-156.08 583.33) rotate(-59.88)" />
    <path class="cls-5"
        d="M489.25,423.69s-11.21-34.78-7.54-42.32,8.5,6.46,8.5,6.46,1-33.16,8.17-38.5S502.21,388,502.21,388s4.67-6.5,9.67-5.83S498,423.69,498,423.69Z"
        transform="translate(-71.11 -63.7)" />
    <rect class="cls-6" x="463.46" y="388.49" width="65.98" height="1"
        transform="translate(-8.46 783.1) rotate(-84.62)" />
    <path class="cls-6"
        d="M621.83,379.23h-42a13.51,13.51,0,0,0-13.51,13.51v30.95h69V392.74A13.5,13.5,0,0,0,621.83,379.23Z"
        transform="translate(-71.11 -63.7)" />
    <path class="cls-5"
        d="M576.6,395.93H556.11a13.5,13.5,0,0,0-13.51,13.5v14.26h47.51V409.43A13.5,13.5,0,0,0,576.6,395.93Z"
        transform="translate(-71.11 -63.7)" />
    <path class="cls-6"
        d="M553.87,413.41a5,5,0,0,1-3.07-1.56,1.3,1.3,0,0,1-1.17.51c-1.27-.18-2-2.5-2.21-3.21l1-.27c.32,1.13,1,2.43,1.38,2.49.15,0,.31-.13.56-.54l.35-.59.45.51c.5.56,2,1.95,3.1,1.61.78-.24,1.32-1.42,1.55-3.41l1,.12c-.29,2.44-1,3.87-2.25,4.25A2.43,2.43,0,0,1,553.87,413.41Z"
        transform="translate(-71.11 -63.7)" />
    <path class="cls-6"
        d="M576.21,406.63a5,5,0,0,1-3.07-1.56,1.32,1.32,0,0,1-1.17.51c-1.28-.18-2-2.51-2.21-3.21l1-.27c.31,1.13,1,2.43,1.38,2.48.08,0,.3-.12.56-.53l.35-.59.45.51c.5.56,2,1.95,3.1,1.61.78-.25,1.32-1.42,1.55-3.41l1,.12c-.29,2.44-1.05,3.87-2.25,4.24A2.14,2.14,0,0,1,576.21,406.63Z"
        transform="translate(-71.11 -63.7)" />
    <path class="cls-6"
        d="M570.88,420a5.05,5.05,0,0,1-3.07-1.55,1.34,1.34,0,0,1-1.17.5c-1.28-.17-2-2.5-2.22-3.21l1-.27c.31,1.13,1,2.43,1.38,2.49.08,0,.3-.12.56-.54l.35-.59.45.51c.5.57,2,1.95,3.1,1.61.78-.24,1.32-1.42,1.55-3.41l1,.12c-.28,2.44-1,3.87-2.24,4.25A2.48,2.48,0,0,1,570.88,420Z"
        transform="translate(-71.11 -63.7)" />
    <path class="cls-5"
        d="M601.25,400.19a5,5,0,0,1-3.07-1.56,1.32,1.32,0,0,1-1.17.51c-1.28-.18-2-2.5-2.21-3.21l1-.27c.31,1.13,1,2.43,1.38,2.49.08,0,.31-.12.56-.54l.35-.59.45.51c.5.56,2,2,3.1,1.61.78-.24,1.32-1.42,1.55-3.41l1,.12c-.29,2.44-1,3.87-2.25,4.24A2.14,2.14,0,0,1,601.25,400.19Z"
        transform="translate(-71.11 -63.7)" />
    <path class="cls-5"
        d="M583.73,391.46a5,5,0,0,1-3.07-1.56,1.35,1.35,0,0,1-1.17.51c-1.28-.18-2-2.51-2.22-3.22l1-.26c.31,1.13,1,2.43,1.38,2.48.08,0,.3-.12.56-.53l.35-.59.45.51c.5.56,2,1.95,3.1,1.61.78-.25,1.32-1.42,1.55-3.41l1,.12c-.28,2.44-1,3.87-2.24,4.24A2.14,2.14,0,0,1,583.73,391.46Z"
        transform="translate(-71.11 -63.7)" />
    <path class="cls-5"
        d="M623.58,393.41a5,5,0,0,1-3.06-1.56,1.35,1.35,0,0,1-1.17.51c-1.28-.18-2-2.51-2.22-3.22l1-.26c.31,1.13,1,2.43,1.38,2.48.09,0,.31-.11.56-.53l.35-.59.45.51c.5.56,2,1.95,3.1,1.61.78-.25,1.32-1.42,1.55-3.41l1,.12c-.28,2.44-1,3.87-2.24,4.24A2.16,2.16,0,0,1,623.58,393.41Z"
        transform="translate(-71.11 -63.7)" />
    <path class="cls-5"
        d="M617.7,414.21a5,5,0,0,1-3.07-1.56,1.34,1.34,0,0,1-1.17.51c-1.27-.18-2-2.51-2.21-3.22l1-.26c.32,1.13,1,2.43,1.38,2.48.09,0,.31-.12.56-.54l.35-.58.45.51c.5.56,2,1.95,3.11,1.61.78-.25,1.31-1.42,1.55-3.41l1,.12c-.29,2.44-1,3.87-2.25,4.24A2.05,2.05,0,0,1,617.7,414.21Z"
        transform="translate(-71.11 -63.7)" />
    <path class="cls-6"
        d="M117.46,391.5h49.95a0,0,0,0,1,0,0v22.41a9.78,9.78,0,0,1-9.78,9.78H127.24a9.78,9.78,0,0,1-9.78-9.78V391.5A0,0,0,0,1,117.46,391.5Z"
        transform="translate(213.76 751.49) rotate(-180)" />
    <path class="cls-5"
        d="M150.21,403.59h34.4a0,0,0,0,1,0,0v10.33a9.78,9.78,0,0,1-9.78,9.78H160a9.78,9.78,0,0,1-9.78-9.78V403.59A0,0,0,0,1,150.21,403.59Z"
        transform="translate(263.71 763.58) rotate(-180)" />
    <path class="cls-6"
        d="M176.45,416.39a1.81,1.81,0,0,1-.51-.08c-.94-.29-1.51-1.34-1.72-3.19l1-.12c.16,1.36.52,2.2,1,2.36s1.7-.67,2.1-1.13l.45-.51.35.59c.17.28.28.32.28.32a3.39,3.39,0,0,0,.87-1.7l1,.27c-.15.53-.71,2.28-1.72,2.42a1,1,0,0,1-.87-.31A3.63,3.63,0,0,1,176.45,416.39Z"
        transform="translate(-71.11 -63.7)" />
    <path class="cls-6"
        d="M160.27,411.48a1.81,1.81,0,0,1-.51-.08c-.94-.29-1.5-1.34-1.72-3.19l1-.12c.16,1.36.53,2.2,1,2.36.66.21,1.7-.67,2.1-1.13l.45-.51.36.59c.17.28.27.32.28.32a3.57,3.57,0,0,0,.87-1.7l1,.27c-.15.53-.71,2.28-1.72,2.42a1.05,1.05,0,0,1-.87-.31A3.63,3.63,0,0,1,160.27,411.48Z"
        transform="translate(-71.11 -63.7)" />
    <path class="cls-6"
        d="M164.13,421.17a1.81,1.81,0,0,1-.51-.08c-.94-.29-1.5-1.34-1.72-3.19l1-.12c.16,1.36.53,2.2,1,2.36.66.21,1.7-.67,2.1-1.13l.45-.51.36.59c.17.28.27.32.28.32a3.57,3.57,0,0,0,.87-1.7l1,.27c-.15.53-.71,2.28-1.71,2.42a1.06,1.06,0,0,1-.88-.31A3.63,3.63,0,0,1,164.13,421.17Z"
        transform="translate(-71.11 -63.7)" />
    <path class="cls-5"
        d="M142.14,406.81a1.79,1.79,0,0,1-.51-.07c-.94-.3-1.5-1.34-1.72-3.19l1-.12c.16,1.36.53,2.19,1,2.35.65.21,1.7-.67,2.1-1.12l.45-.51.35.58c.18.29.28.33.28.33a3.46,3.46,0,0,0,.88-1.7l1,.26c-.15.54-.71,2.29-1.72,2.43a1.09,1.09,0,0,1-.87-.31A3.68,3.68,0,0,1,142.14,406.81Z"
        transform="translate(-71.11 -63.7)" />
    <path class="cls-5"
        d="M154.83,400.49a1.51,1.51,0,0,1-.51-.08c-.94-.29-1.51-1.33-1.72-3.18l1-.12c.16,1.36.52,2.19,1,2.35s1.7-.67,2.1-1.12l.45-.51.35.58a.85.85,0,0,0,.28.33,3.39,3.39,0,0,0,.87-1.71l1,.27c-.15.53-.71,2.29-1.72,2.43a1.1,1.1,0,0,1-.87-.31A3.68,3.68,0,0,1,154.83,400.49Z"
        transform="translate(-71.11 -63.7)" />
    <path class="cls-5"
        d="M126,401.9a1.86,1.86,0,0,1-.52-.07c-.94-.3-1.5-1.34-1.72-3.19l1-.12c.16,1.36.52,2.19,1,2.35.66.21,1.7-.67,2.1-1.12l.46-.51.35.58c.17.29.28.33.28.33a3.57,3.57,0,0,0,.87-1.7l1,.26c-.15.54-.71,2.29-1.71,2.43a1.07,1.07,0,0,1-.87-.31A3.7,3.7,0,0,1,126,401.9Z"
        transform="translate(-71.11 -63.7)" />
    <path class="cls-5"
        d="M130.23,417a1.79,1.79,0,0,1-.51-.07c-.94-.3-1.51-1.34-1.73-3.19l1-.12c.16,1.36.52,2.2,1,2.35.66.22,1.7-.67,2.11-1.12l.45-.51.35.58c.17.29.28.33.28.33a3.48,3.48,0,0,0,.87-1.7l1,.26c-.15.54-.72,2.29-1.72,2.43a1,1,0,0,1-.87-.31A3.68,3.68,0,0,1,130.23,417Z"
        transform="translate(-71.11 -63.7)" />
    <path class="cls-3"
        d="M272.77,96.18a18.31,18.31,0,0,0-20.18-4.33s-5.65-6.67-12.15-4c0,0-7.22-12.6-25.51-13.84-19.16-1.29-28.53,13.71-28.53,13.71s-19-5.54-26.46,8.46Z"
        transform="translate(-71.11 -63.7)" />
    <path class="cls-18" d="M485.73,194.5" transform="translate(-71.11 -63.7)" />
</svg>