<svg xmlns="http://www.w3.org/2000/svg" xmlns:xlink="http://www.w3.org/1999/xlink" version="1.1" x="0px" y="0px"
    viewBox="0 0 74 64" enable-background="new 0 0 64 64" xml:space="preserve" fill="white" >
    <g>
        <g>
            <path
                d="M51.929,47.645l-1.175,1l-2.327-2.733c9.358-9.603,10.038-24.978,1.173-35.384C40.198-0.508,23.57-1.838,12.533,7.564    S0.167,33.594,9.569,44.631c8.865,10.406,24.152,12.179,35.122,4.467l2.328,2.731l-1.175,1l8.409,9.873l6.445-4.76L51.929,47.645z     M44.014,44.52c-9.34,7.957-23.413,6.832-31.369-2.509c-7.957-9.34-6.832-23.414,2.509-31.371c9.34-7.957,23.414-6.83,31.371,2.51    C54.481,22.491,53.354,36.563,44.014,44.52z" />
        </g>
        <g>
            <path
                d="M37.124,34.748c-1.416-0.355-2.85,0.508-3.204,1.924c-0.353,1.416,0.51,2.852,1.926,3.204    c1.416,0.353,2.85-0.508,3.204-1.926C39.403,36.534,38.541,35.101,37.124,34.748z M37.701,37.615    c-0.169,0.671-0.847,1.079-1.518,0.912c-0.671-0.167-1.081-0.847-0.912-1.518c0.167-0.671,0.847-1.079,1.518-0.912    C37.46,36.264,37.868,36.944,37.701,37.615z" />
            <path
                d="M36.559,13.879c-0.107-0.514-0.232-1.021-0.458-1.497c-0.019-0.038-0.036-0.077-0.052-0.113c0-0.002,0-0.002,0-0.002    c-0.033-0.069-0.061-0.14-0.086-0.211c-0.075-0.203-0.149-0.406-0.224-0.611c-0.056-0.155-0.113-0.31-0.169-0.464    c-0.01-0.029-0.021-0.056-0.031-0.084c0.012-0.006,0.023-0.011,0.035-0.019c0.19,0.303,0.381,0.604,0.573,0.906    c-0.029-0.102-0.065-0.203-0.105-0.301c-0.174-0.422-0.399-0.809-0.734-1.123c-0.071-0.065-0.136-0.138-0.19-0.218    c-0.339-0.506-0.749-0.935-1.309-1.198c-0.015-0.008-0.033-0.015-0.048-0.023c-0.259-0.113-0.517-0.222-0.776-0.332    c-0.065-0.029-0.128-0.056-0.194-0.084c0.13,0.01,0.261,0.025,0.389,0.044c0.732,0.109,1.422,0.355,2.093,0.673    c-0.027-0.029-0.056-0.048-0.084-0.067c-0.805-0.544-1.704-0.816-2.66-0.929c-0.036-0.004-0.073-0.008-0.111-0.011    c-0.32-0.031-0.644-0.042-0.951-0.165c-0.119-0.048-0.247-0.075-0.374-0.107c-0.146-0.036-0.291-0.073-0.435-0.109    c-0.036-0.008-0.071-0.015-0.105-0.025c0.002-0.017,0-0.011,0.004-0.031h1.652c-0.011-0.033-0.027-0.042-0.042-0.044    c-0.721-0.103-1.441-0.182-2.167-0.115c-0.249,0.021-0.494,0.033-0.744-0.002c-0.109-0.015-0.22-0.019-0.33-0.029    c-0.002-0.017-0.002-0.013-0.002-0.031c0.539-0.102,1.079-0.201,1.65-0.309c-0.573,0.015-1.113,0.052-1.646,0.148    c-0.297,0.052-0.588,0.148-0.889,0.186c-0.425,0.056-0.859,0.079-1.292,0.115c0.855-0.408,1.769-0.584,2.702-0.688    c-0.176,0.006-0.351-0.002-0.525,0.008c-0.646,0.033-1.286,0.109-1.913,0.28c-0.517,0.142-1.01,0.339-1.433,0.684    c-0.08,0.065-0.178,0.109-0.266,0.165c-0.01-0.015-0.019-0.029-0.029-0.042c0.195-0.14,0.383-0.293,0.586-0.42    c0.207-0.13,0.425-0.243,0.646-0.347c0.215-0.102,0.439-0.182,0.657-0.27c-0.435,0.109-0.853,0.263-1.255,0.46    c-0.799,0.393-1.399,1.046-2.089,1.581c-0.002,0.002-0.004,0.002-0.006,0.004c-0.044,0.073-0.092,0.144-0.132,0.218    c-0.057,0.111-0.102,0.232-0.169,0.337c-0.031,0.048-0.096,0.08-0.151,0.103c-0.113,0.046-0.234,0.075-0.345,0.125    c-0.594,0.266-0.945,0.732-1.094,1.359c0.142-0.286,0.324-0.54,0.586-0.772c-0.071,0.245-0.13,0.464-0.199,0.678    c-0.031,0.096-0.075,0.186-0.128,0.268c-0.134,0.209-0.238,0.431-0.318,0.696c0.111-0.192,0.209-0.358,0.307-0.523    c0.008,0.004,0.015,0.008,0.023,0.011c-0.01,0.046-0.019,0.09-0.029,0.136c-0.002,0.008-0.004,0.017-0.006,0.025    c-0.276,1.215-0.347,2.468-0.226,3.708l0.255,2.614c0.025,0.257,0.04,0.514,0.057,0.772c0.084,1.272,0.623,2.474,1.633,3.651    c0.029,0.034,0.056,0.08,0.067,0.123c0.355,1.115,0.876,2.016,1.593,2.754c1.079,1.108,2.359,1.694,3.704,1.694h0.002    c1.34,0,2.614-0.581,3.687-1.681c0.688-0.705,1.198-1.566,1.558-2.633c0.04-0.119,0.115-0.249,0.207-0.36    c1.044-1.269,1.556-2.56,1.554-3.932v-0.284l0.021-4.749c-0.023-0.157-0.048-0.318-0.071-0.479    c0.027,0.063,0.05,0.126,0.075,0.186c0.042,0.111,0.084,0.215,0.121,0.32c0.058,0.163,0.107,0.326,0.161,0.491    C36.569,13.934,36.565,13.907,36.559,13.879z M33.642,21.54c-0.199,0.241-0.355,0.515-0.448,0.793    c-0.293,0.868-0.699,1.56-1.238,2.114c-0.809,0.828-1.744,1.267-2.704,1.267H29.25c-0.966,0-1.905-0.443-2.719-1.28    c-0.563-0.579-0.977-1.303-1.267-2.21c-0.067-0.215-0.186-0.429-0.333-0.602c-0.989-1.154-1.401-2.258-1.299-3.476l0.008-0.079    c0.004-0.067,0.011-0.159,0.021-0.218c0.333-0.111,0.531-0.429,0.54-0.88c0.008-0.32,0.011-0.642,0.013-0.954    c0.004-0.349,0.006-0.705,0.017-1.06c0-0.594,0.481-1.073,1.071-1.073c0.011,0,0.021,0,0.033,0.002l0.539,0.015    c0.443-0.036,0.891-0.031,1.336-0.038c0.401-0.004,0.799,0,1.198,0h2.463c0.316-0.002,0.632-0.008,0.949-0.008    c0.274-0.002,0.548-0.002,0.822-0.002c0.266,0,0.529-0.006,0.79,0.075c0.303,0.092,0.529,0.27,0.659,0.548    c0.082,0.18,0.121,0.379,0.178,0.563c0.004-0.002,0.008-0.008,0.01-0.01c0.01,0.303,0.01,0.613,0.008,0.933    c0,0.278,0,0.563,0.006,0.851c0.002,0.075,0,0.151,0,0.236v0.159c0,0.32,0.23,0.596,0.544,0.652    c0.011,0.059,0.021,0.142,0.025,0.176C34.988,19.26,34.602,20.373,33.642,21.54z" />
            <path
                d="M27.979,47.643c5.369,0.43,10.576-1.252,14.663-4.734l0,0c0.865-0.737,1.315-1.85,1.207-2.981l-0.27-2.824    c-0.424-3.503-2.197-5.697-5.138-6.804l-0.018-0.005c0.114,0.497,0.16,1.012,0.172,1.454c0.024,0.904-0.082,1.922-0.278,2.697    c1.218,0.781,1.823,2.278,1.471,3.689c-0.486,1.948-2.569,3.084-4.503,2.363c-1.458-0.543-2.37-2.044-2.18-3.588    c0.248-2.013,2.143-3.32,4.052-2.935c0.265-1.063,0.363-2.098,0.267-2.868c-0.054-0.445-0.17-0.811-0.345-1.084    c-0.018-0.029-0.036-0.056-0.054-0.083l-0.114-0.029c-0.028-0.029-0.055-0.057-0.083-0.085c-0.071-0.016-0.141-0.032-0.212-0.047    c-0.916-0.189-2.149-1.568-2.674-2.691l-0.202,0.151l-1.895,4.195l-1.221,2.704l-0.108,0.001l-0.011-0.082l-0.353-2.542v-0.001    l-0.036-0.254l0.658-0.658l0.001-0.001l0.114-0.113c0.331-0.332,0.388-0.857,0.12-1.241c-0.269-0.384-0.715-0.635-1.22-0.635    h-1.145c-0.514,0-0.967,0.261-1.235,0.658c-0.256,0.38-0.189,0.893,0.136,1.218l0.174,0.174l0.598,0.598l-0.022,0.16l-0.359,2.589    l-0.022,0.159l-0.05,0.001l-3.372-7.081c-0.525,1.123-1.758,2.502-2.674,2.691c-0.187,0.038-0.369,0.081-0.548,0.126l-0.358,0.109    c0.163,0.738,0.402,1.83,0.43,1.909c0.044,0.127,0.094,0.268,0.144,0.426c0.094,0.297,0.221,0.698,0.342,1.163    c0.602-0.089,1.336-0.03,1.816,0.056c1.049,0.245,1.833,0.813,2.099,1.265c0.016,0.016,0.04,0.038,0.056,0.054    c0.045,0.023,0.092,0.048,0.139,0.073c1.003,0.565,1.745,1.481,2.147,2.649l0,0c0.068,0.198,0.066,0.413-0.005,0.607    c-0.019,0.052-0.043,0.102-0.072,0.15c0.031,0.118,0.059,0.235,0.083,0.349c0.245,1.168,0.179,2.34-0.184,3.298    c-0.199,0.525-0.482,0.964-0.842,1.307c0.09,0.475-0.201,0.934-0.656,1.029c-0.459,0.096-1.246-0.13-1.351-0.627    c-0.104-0.497,0.526-1.02,0.985-1.116c0.125-0.026,0.253-0.023,0.376,0.01c0.883-0.834,1.02-2.45,0.756-3.71    c-0.054-0.061-0.118-0.133-0.173-0.193c-0.233-0.092-0.423-0.287-0.51-0.537c-0.586-1.705-2.173-2.41-4.357-1.936l-0.008,0.002    l-0.01,0.001c-2.015,0.502-3.047,1.727-2.906,3.451c0.024,0.288-0.093,0.566-0.302,0.744c-0.015,0.046-0.028,0.084-0.043,0.131    c0.249,1.276,1.03,2.746,2.194,3.163c0.1-0.079,0.216-0.134,0.341-0.16c0.459-0.096,1.246,0.13,1.351,0.628    c0.104,0.497-0.526,1.02-0.985,1.116c-0.455,0.095-0.907-0.209-1.014-0.68c-0.467-0.17-0.903-0.459-1.295-0.859    c-0.718-0.733-1.248-1.78-1.492-2.948c-0.024-0.115-0.045-0.23-0.064-0.352c-0.214-0.151-0.352-0.393-0.374-0.663    c-0.097-1.194,0.194-2.3,0.843-3.205c-0.117-0.659,0.768-2.051,2.265-2.735c-0.113-0.445-0.235-0.833-0.335-1.149l-0.004-0.014    c-0.062-0.195-0.12-0.378-0.169-0.552c-0.074-0.263-0.233-1.008-0.361-1.77c-2.804,1.134-4.497,3.303-4.91,6.714l-0.21,2.211    c-0.102,1.07,0.292,2.129,1.071,2.871C19.045,45.352,23.326,47.271,27.979,47.643z" />
        </g>
    </g>
</svg>